<?xml version="1.0" encoding="UTF-8"?>
<!-- Created with Inkscape (http://www.inkscape.org/) -->
<svg width="64" height="64" version="1.1" viewBox="0 0 16.933 16.933" xmlns="http://www.w3.org/2000/svg">
 <path d="m15.319 8.4667c0.194 4.6958-5.2105 8.3069-9.4745 6.3307-4.4126-1.6178-5.6806-7.9928-2.223-11.176 2.9315-3.1805 8.6047-2.4157 10.7 1.285 0.65018 1.0658 0.99929 2.3118 0.99756 3.5603z" fill="#fff" fill-rule="evenodd" stroke-width=".37539"/>
 <g transform="matrix(.02487 -.0081991 .0081991 .02487 8.4672 8.4668)" stroke-linejoin="round">
  <g stroke="#000" stroke-width="13.694">
   <path d="m238.95-50c-8.5893-23.941-12.628-50.45-30.62-69.689-16.069-21.226-30.231-44.356-48.132-63.921-11.345-6.6923-32.84-27.001-37.659-24.939 7.7781 23.034 12.326 48.068 29.474 66.435 16.487 21.38 30.369 45.386 49.138 64.651 12.6 9.1543 25.199 18.309 37.799 27.463z"/>
   <path d="m26.287-242.7c-25.424 0.77071-51.883-3.5798-75.74 7.5861-25.153 8.7239-51.527 15.045-75.666 26.024-9.8708 8.7212-35.828 22.888-35.357 28.108 24.31-0.27939 49.524 3.131 72.291-7.5012 25.429-9.0729 52.549-14.857 76.672-26.754 12.6-9.1544 25.2-18.309 37.8-27.463z"/>
   <path d="m-222.7-100c-7.1234 24.417-19.437 48.237-16.19 74.377 0.52419 26.618-1.6139 53.654 1.368 80.005 5.2444 12.083 10.697 41.148 15.807 42.312 7.2466-23.207 18.282-46.133 15.205-71.071-0.52419-26.618 1.6139-53.654-1.368-80.005-4.9407-15.206-9.8815-30.412-14.822-45.618z"/>
   <path d="m-163.92 180.9c21.021 14.32 39.871 33.391 65.734 38.381 25.905 7.6065 51.246 18.868 77.754 23.422h46.723c-21.021-14.32-39.87-33.393-65.734-38.382-25.905-7.6062-51.247-18.867-77.755-23.421h-46.723z"/>
   <path d="m121.39 211.8c20.115-15.567 44.079-27.599 56.816-50.655 15.221-21.842 32.842-42.459 45.918-65.529 2.8592-12.858 15.532-39.577 12.082-43.523-19.503 14.515-41.906 26.577-54.075 48.56-15.222 21.842-32.843 42.458-45.919 65.529l-14.822 45.618z"/>
   <path d="m196.42 80.902c12.929-12.417 35.613-19.863 42.532-35.342v-95.559c-15.99-5.7668-43.474-46.91-47.461-15.733-7.8965 32.024-31.006 64.047-11.501 96.071 5.4765 16.855 10.953 33.709 16.429 50.564z"/>
   <path d="m52.573-161.8h85.065c-9.4071-16.613-6.1154-45.924-25.162-52.897-28.73-9.335-57.46-18.67-86.189-28.005-10.426 13.426-58.048 26.851-29.629 40.277 18.639 13.542 37.277 27.083 55.916 40.625z"/>
   <path d="m-137.64-100c5.0315-25.332 26.615-62.691 21.845-80.902h-48.132c-19.593 26.967-39.185 53.935-58.778 80.902 9.5468 14.064 7.599 63.505 29.15 40.625 18.638-13.542 37.277-27.083 55.915-40.625z"/>
   <path d="m-137.64 100c-22.72-13.908-49.856-41.405-69.834-46.875-1.9747 18.892-23.271 40.845-7.8834 56.988 17.144 23.596 34.287 47.193 51.431 70.789h52.573c-8.762-26.967-17.524-53.935-26.286-80.902z"/>
   <path d="m-16.246 211.8c17.375 7.9106 31.941 33.559 51.449 28.005 28.73-9.335 57.46-18.67 86.189-28.005 1.9153-15.199 19.614-41.866 11.805-50h-80.624c-22.94 16.667-45.879 33.333-68.819 50z"/>
  </g>
  <path d="m85.065 0c-19.593-26.967-39.186-53.934-58.778-80.902-31.702 10.301-63.404 20.601-95.106 30.902v100c31.702 10.301 63.404 20.601 95.106 30.902 19.593-26.967 39.186-53.934 58.778-80.902z" fill="#00f" stroke="#00f" stroke-width="34.234"/>
  <g fill="#fff" stroke="#000" stroke-width="13.694">
   <path d="m26.287 80.902c8.7622 26.967 17.524 53.934 26.286 80.901h85.065l58.779-80.901c-11.43-25.332-14.124-62.69-30.728-80.902h-80.624c-19.593 26.967-39.186 53.934-58.778 80.902z"/>
   <path d="m85.065 0h85.065c6.3506-27.921 24.041-57.637 23.677-84.494-18.723-25.77-37.446-51.539-56.169-77.309h-85.065c-8.7622 26.967-17.524 53.934-26.286 80.901 19.593 26.967 39.186 53.934 58.778 80.902z"/>
   <path d="m26.287-80.902c8.7622-26.967 17.524-53.934 26.286-80.901-26.312-13.171-49.218-47.852-77.735-47.103-28.73 9.3347-57.46 18.669-86.19 28.004-5.4478 27.398-26.41 59.837-21.985 84.027 23.725 12.853 44.998 41.191 70.149 45.045 29.825-9.6907 59.65-19.381 89.475-29.072z"/>
   <path d="m-68.819-50c-24.373-13.648-48.747-43.608-73.12-46.875-19.556 18.592-53.08 30.067-64.518 52.796v94.079c24.373 13.648 48.747 43.608 73.12 46.875 19.556-18.592 53.08-30.067 64.518-52.796v-94.079z"/>
   <path d="m-68.819 50c-20.512 18.963-56.537 32.885-67.176 55.056 14.113 24.633 9.3146 68.179 36.531 79.708 27.739 9.0128 55.478 18.026 83.218 27.038 20.56-18.699 55.258-32.804 67.447-54.223-8.3048-25.559-16.61-51.119-24.914-76.678-31.702-10.301-63.404-20.601-95.106-30.902z"/>
  </g>
 </g>
</svg>
